<svg width="28" height="28" viewBox="0 0 100 100" fill="none" xmlns="http://www.w3.org/2000/svg">
    <rect width="100" height="100" rx="8" fill="gray"/>
    <path d="M37.1875 88.6797C32.5781 87.3776 29.1016 85.2292 26.7578 82.2344C24.4401 79.2656 23.2812 75.3333 23.2812 70.4375V62.6641C23.2812 56.3359 20.5208 53.1719 15 53.1719V47.5078C20.5208 47.5078 23.2812 44.3568 23.2812 38.0547V29.9297C23.3333 25.1641 24.4922 21.3229 26.7578 18.4062C29.0495 15.4635 32.526 13.3281 37.1875 12L38.6719 16.4922C33.2292 18.237 30.5078 22.7812 30.5078 30.125V38.0156C30.5078 43.9271 28.3333 48.0417 23.9844 50.3594C28.3333 52.7031 30.5078 56.8568 30.5078 62.8203V70.8672C30.5859 78.0286 33.3073 82.4688 38.6719 84.1875L37.1875 88.6797Z" fill="white"/>
    <path d="M60.3516 84.1875C65.638 82.4948 68.3724 78.1849 68.5547 71.2578V62.6641C68.5547 56.6484 70.9115 52.5469 75.625 50.3594C70.9115 48.224 68.5547 44.1224 68.5547 38.0547V30.125C68.5547 22.7812 65.8333 18.237 60.3906 16.4922L61.875 12C66.4844 13.3021 69.9479 15.4245 72.2656 18.3672C74.5833 21.2839 75.7552 25.151 75.7812 29.9688V38.1719C75.7812 44.3958 78.5417 47.5078 84.0625 47.5078V53.1719C78.5417 53.1719 75.7812 56.3359 75.7812 62.6641V70.5547C75.7812 75.4505 74.5964 79.3698 72.2266 82.3125C69.8828 85.2552 66.4323 87.3776 61.875 88.6797L60.3516 84.1875Z" fill="white"/>
</svg>